<mxfile host="65bd71144e">
    <diagram id="HtHM5Bdb-mlQgWOvJAM3" name="Page-1">
        <mxGraphModel dx="468" dy="943" grid="1" gridSize="10" guides="1" tooltips="1" connect="1" arrows="1" fold="1" page="1" pageScale="1" pageWidth="850" pageHeight="1100" math="0" shadow="0">
            <root>
                <mxCell id="0"/>
                <mxCell id="1" parent="0"/>
                <mxCell id="11" value="" style="ellipse;shape=doubleEllipse;whiteSpace=wrap;html=1;fontSize=14;flipH=0;container=0;aspect=fixed;movable=1;resizable=1;rotatable=1;deletable=1;editable=1;connectable=1;labelBorderColor=none;" vertex="1" parent="1">
                    <mxGeometry x="10" y="30" width="450" height="450" as="geometry"/>
                </mxCell>
                <mxCell id="2" value="" style="shape=flexArrow;endArrow=classic;html=1;" edge="1" parent="1">
                    <mxGeometry width="50" height="50" relative="1" as="geometry">
                        <mxPoint x="80" y="130" as="sourcePoint"/>
                        <mxPoint x="250" y="130" as="targetPoint"/>
                        <Array as="points"/>
                    </mxGeometry>
                </mxCell>
                <mxCell id="3" value="&lt;pre style=&quot;&quot;&gt;&lt;b&gt;&lt;font style=&quot;font-size: 14px;&quot;&gt;APPLICATION&lt;/font&gt;&lt;/b&gt;&lt;/pre&gt;" style="edgeLabel;html=1;align=center;verticalAlign=middle;resizable=0;points=[];" vertex="1" connectable="0" parent="2">
                    <mxGeometry x="0.1" relative="1" as="geometry">
                        <mxPoint as="offset"/>
                    </mxGeometry>
                </mxCell>
                <mxCell id="5" value="" style="shape=flexArrow;endArrow=classic;html=1;" edge="1" parent="1">
                    <mxGeometry width="50" height="50" relative="1" as="geometry">
                        <mxPoint x="50" y="220" as="sourcePoint"/>
                        <mxPoint x="250" y="220" as="targetPoint"/>
                        <Array as="points"/>
                    </mxGeometry>
                </mxCell>
                <mxCell id="6" value="&lt;pre style=&quot;&quot;&gt;&lt;span style=&quot;font-size: 14px;&quot;&gt;&lt;b&gt;SECURITY&lt;/b&gt;&lt;/span&gt;&lt;/pre&gt;" style="edgeLabel;html=1;align=center;verticalAlign=middle;resizable=0;points=[];" vertex="1" connectable="0" parent="5">
                    <mxGeometry x="0.1" relative="1" as="geometry">
                        <mxPoint as="offset"/>
                    </mxGeometry>
                </mxCell>
                <mxCell id="7" value="" style="shape=flexArrow;endArrow=classic;html=1;" edge="1" parent="1">
                    <mxGeometry width="50" height="50" relative="1" as="geometry">
                        <mxPoint x="50" y="300" as="sourcePoint"/>
                        <mxPoint x="240" y="300" as="targetPoint"/>
                        <Array as="points"/>
                    </mxGeometry>
                </mxCell>
                <mxCell id="8" value="&lt;pre style=&quot;&quot;&gt;&lt;b&gt;&lt;font style=&quot;font-size: 14px;&quot;&gt;TRANSPORT&lt;/font&gt;&lt;/b&gt;&lt;/pre&gt;" style="edgeLabel;html=1;align=center;verticalAlign=middle;resizable=0;points=[];" vertex="1" connectable="0" parent="7">
                    <mxGeometry x="0.1" relative="1" as="geometry">
                        <mxPoint as="offset"/>
                    </mxGeometry>
                </mxCell>
                <mxCell id="9" value="" style="shape=flexArrow;endArrow=classic;html=1;" edge="1" parent="1">
                    <mxGeometry width="50" height="50" relative="1" as="geometry">
                        <mxPoint x="80" y="380" as="sourcePoint"/>
                        <mxPoint x="250" y="380" as="targetPoint"/>
                        <Array as="points"/>
                    </mxGeometry>
                </mxCell>
                <mxCell id="10" value="&lt;pre style=&quot;&quot;&gt;&lt;span style=&quot;font-size: 14px;&quot;&gt;&lt;b&gt;NETWORK&lt;/b&gt;&lt;/span&gt;&lt;/pre&gt;" style="edgeLabel;html=1;align=center;verticalAlign=middle;resizable=0;points=[];" vertex="1" connectable="0" parent="9">
                    <mxGeometry x="0.1" relative="1" as="geometry">
                        <mxPoint as="offset"/>
                    </mxGeometry>
                </mxCell>
                <mxCell id="12" value="IP" style="whiteSpace=wrap;html=1;aspect=fixed;fontSize=14;" vertex="1" parent="1">
                    <mxGeometry x="270" y="340" width="80" height="80" as="geometry"/>
                </mxCell>
                <mxCell id="13" value="TCP" style="whiteSpace=wrap;html=1;aspect=fixed;fontSize=14;" vertex="1" parent="1">
                    <mxGeometry x="270" y="260" width="80" height="80" as="geometry"/>
                </mxCell>
                <mxCell id="14" value="TLS" style="whiteSpace=wrap;html=1;aspect=fixed;fontSize=14;" vertex="1" parent="1">
                    <mxGeometry x="270" y="180" width="80" height="80" as="geometry"/>
                </mxCell>
                <mxCell id="15" value="HTTP" style="whiteSpace=wrap;html=1;aspect=fixed;fontSize=14;" vertex="1" parent="1">
                    <mxGeometry x="270" y="100" width="80" height="80" as="geometry"/>
                </mxCell>
                <mxCell id="16" value="&lt;p style=&quot;caret-color: rgb(0, 0, 0); font-size: 11px; line-height: 130%;&quot;&gt;&lt;strong style=&quot;font-size: 11px;&quot;&gt;&lt;font style=&quot;font-size: 11px;&quot;&gt;&lt;i style=&quot;font-size: 11px;&quot;&gt;&amp;nbsp; &amp;nbsp; &amp;nbsp; &amp;nbsp;&lt;/i&gt;&lt;/font&gt;&lt;/strong&gt;&lt;strong style=&quot;background-color: initial; font-size: 11px;&quot;&gt;&lt;i style=&quot;font-size: 11px;&quot;&gt;ინტერნეტ კომუნიკაციის ფენები&lt;/i&gt;&lt;/strong&gt;&lt;/p&gt;&lt;ol style=&quot;caret-color: rgb(0, 0, 0); font-size: 11px; line-height: 130%;&quot;&gt;&lt;li style=&quot;font-size: 11px;&quot;&gt;&lt;font style=&quot;font-size: 11px;&quot;&gt;&lt;i style=&quot;font-size: 11px;&quot;&gt;&lt;strong style=&quot;font-size: 11px;&quot;&gt;აპლიკაციის ფენა (HTTP)&lt;/strong&gt;:&lt;/i&gt;&lt;/font&gt;&lt;ul style=&quot;font-size: 11px; line-height: 130%;&quot;&gt;&lt;li style=&quot;font-size: 11px;&quot;&gt;&lt;font style=&quot;font-size: 11px;&quot;&gt;&lt;i style=&quot;font-size: 11px;&quot;&gt;პასუხისმგებელია ბრაუზერსა და სერვერს შორის მოთხოვნისა და პასუხის გადაცემაზე.&amp;nbsp;&amp;nbsp;&lt;/i&gt;&lt;/font&gt;&lt;/li&gt;&lt;li style=&quot;font-size: 11px;&quot;&gt;&lt;font style=&quot;font-size: 11px;&quot;&gt;&lt;i style=&quot;font-size: 11px;&quot;&gt;მაგალითად, მომხმარებელი აგზავნის მოთხოვნას ვებ-გვერდზე წვდომისთვის (GET&amp;nbsp; ან POST).&lt;/i&gt;&lt;/font&gt;&lt;/li&gt;&lt;/ul&gt;&lt;/li&gt;&lt;li style=&quot;font-size: 11px;&quot;&gt;&lt;font style=&quot;font-size: 11px;&quot;&gt;&lt;i style=&quot;font-size: 11px;&quot;&gt;&lt;strong style=&quot;font-size: 11px;&quot;&gt;უსაფრთხოების ფენა (TLS)&lt;/strong&gt;:&lt;/i&gt;&lt;/font&gt;&lt;ul style=&quot;font-size: 11px; line-height: 130%;&quot;&gt;&lt;li style=&quot;font-size: 11px;&quot;&gt;&lt;font style=&quot;font-size: 11px;&quot;&gt;&lt;i style=&quot;font-size: 11px;&quot;&gt;ამშიფრავს მონაცემებს და იცავს ჰაკერებისგან.&lt;/i&gt;&lt;/font&gt;&lt;/li&gt;&lt;li style=&quot;font-size: 11px;&quot;&gt;&lt;font style=&quot;font-size: 11px;&quot;&gt;&lt;i style=&quot;font-size: 11px;&quot;&gt;უზრუნველყოფს სერვერის ავთენტიფიკაციას და მონაცემების მთლიანობას.&lt;/i&gt;&lt;/font&gt;&lt;/li&gt;&lt;/ul&gt;&lt;/li&gt;&lt;li style=&quot;font-size: 11px;&quot;&gt;&lt;font style=&quot;font-size: 11px;&quot;&gt;&lt;i style=&quot;font-size: 11px;&quot;&gt;&lt;strong style=&quot;font-size: 11px;&quot;&gt;ტრანსპორტის ფენა (TCP)&lt;/strong&gt;:&lt;/i&gt;&lt;/font&gt;&lt;ul style=&quot;font-size: 11px; line-height: 130%;&quot;&gt;&lt;li style=&quot;font-size: 11px;&quot;&gt;&lt;font style=&quot;font-size: 11px;&quot;&gt;&lt;i style=&quot;font-size: 11px;&quot;&gt;მონაცემებს ყოფს პაკეტებად და უზრუნველყოფს მათ სანდო მიწოდებას.&lt;/i&gt;&lt;/font&gt;&lt;/li&gt;&lt;li style=&quot;font-size: 11px;&quot;&gt;&lt;font style=&quot;font-size: 11px;&quot;&gt;&lt;i style=&quot;font-size: 11px;&quot;&gt;პასუხისმგებელია პაკეტების დაკარგვის ან დაზიანების აღდგენაზე.&lt;/i&gt;&lt;/font&gt;&lt;/li&gt;&lt;/ul&gt;&lt;/li&gt;&lt;li style=&quot;font-size: 11px;&quot;&gt;&lt;font style=&quot;font-size: 11px;&quot;&gt;&lt;i style=&quot;font-size: 11px;&quot;&gt;&lt;strong style=&quot;font-size: 11px;&quot;&gt;ქსელის ფენა (IP)&lt;/strong&gt;:&lt;/i&gt;&lt;/font&gt;&lt;ul style=&quot;font-size: 11px; line-height: 130%;&quot;&gt;&lt;li style=&quot;font-size: 11px;&quot;&gt;&lt;font style=&quot;font-size: 11px;&quot;&gt;&lt;i style=&quot;font-size: 11px;&quot;&gt;პასუხისმგებელია მონაცემების&amp;nbsp; &amp;nbsp; მიმართულებასა და მიწოდებაზე.&lt;/i&gt;&lt;/font&gt;&lt;/li&gt;&lt;/ul&gt;&lt;/li&gt;&lt;/ol&gt;" style="rounded=1;whiteSpace=wrap;html=1;fontSize=11;align=left;" vertex="1" parent="1">
                    <mxGeometry x="480" y="40" width="350" height="430" as="geometry"/>
                </mxCell>
                <mxCell id="19" value="&lt;p style=&quot;caret-color: rgb(0, 0, 0); text-align: start; font-size: 11px; line-height: 140%;&quot;&gt;&lt;strong style=&quot;font-size: 11px;&quot;&gt;&amp;nbsp; &amp;nbsp; &amp;nbsp; &amp;nbsp; HTTPS-ის ჩაშენებული პროტოკოლები&lt;/strong&gt;&lt;/p&gt;&lt;ol style=&quot;caret-color: rgb(0, 0, 0); text-align: start; font-size: 11px; line-height: 140%;&quot;&gt;&lt;li style=&quot;font-size: 11px;&quot;&gt;&lt;strong style=&quot;font-size: 11px;&quot;&gt;TCP (Transmission Control Protocol)&lt;/strong&gt;:&lt;ul style=&quot;font-size: 11px; line-height: 140%;&quot;&gt;&lt;li style=&quot;font-size: 11px;&quot;&gt;პასუხისმგებელია მონაცემთა პაკეტების სანდო გადაცემაზე.&lt;/li&gt;&lt;li style=&quot;font-size: 11px;&quot;&gt;აღადგენს დაკარგულ პაკეტებს და მონაცემებს გზავნის სწორ რიგში.&lt;/li&gt;&lt;/ul&gt;&lt;/li&gt;&lt;li style=&quot;font-size: 11px;&quot;&gt;&lt;strong style=&quot;font-size: 11px;&quot;&gt;TLS (Transport Layer Security)&lt;/strong&gt;:&lt;ul style=&quot;font-size: 11px; line-height: 140%;&quot;&gt;&lt;li style=&quot;font-size: 11px;&quot;&gt;უზრუნველყოფს მონაცემების შიფრაციას, მთლიანობას და ავთენტიფიკაციას.&lt;/li&gt;&lt;li style=&quot;font-size: 11px;&quot;&gt;ამ ფენას იყენებს HTTPS უსაფრთხო კავშირის&amp;nbsp; დასამყარებლად.&lt;/li&gt;&lt;/ul&gt;&lt;/li&gt;&lt;li style=&quot;font-size: 11px;&quot;&gt;&lt;strong style=&quot;font-size: 11px;&quot;&gt;HTTP (HyperText Transfer Protocol)&lt;/strong&gt;:&lt;ul style=&quot;font-size: 11px; line-height: 140%;&quot;&gt;&lt;li style=&quot;font-size: 11px;&quot;&gt;პასუხისმგებელია მოთხოვნებისა და პასუხების მართვაზე ვებ-სერვერებსა და ბრაუზერებს შორის.&lt;/li&gt;&lt;li style=&quot;font-size: 11px;&quot;&gt;გამოიყენება HTML, CSS, JavaScript და სხვა რესურსების გადასაცემად.&lt;/li&gt;&lt;/ul&gt;&lt;/li&gt;&lt;li style=&quot;font-size: 11px;&quot;&gt;&lt;strong style=&quot;font-size: 11px;&quot;&gt;HTML/ტექსტი&lt;/strong&gt;:&lt;ul style=&quot;font-size: 11px; line-height: 140%;&quot;&gt;&lt;li style=&quot;font-size: 11px;&quot;&gt;ეს არის მონაცემები, რომლებიც ბრაუზერში ჩანს, მაგალითად, ტექსტი და სურათები ვებ-გვერდზე.&lt;/li&gt;&lt;/ul&gt;&lt;/li&gt;&lt;/ol&gt;" style="rounded=1;whiteSpace=wrap;html=1;fontSize=11;fontColor=#F0F0F0;fontStyle=0" vertex="1" parent="1">
                    <mxGeometry x="20" y="545" width="330" height="440" as="geometry"/>
                </mxCell>
                <mxCell id="20" value="" style="ellipse;shape=doubleEllipse;whiteSpace=wrap;html=1;aspect=fixed;fontSize=14;flipH=0;" vertex="1" parent="1">
                    <mxGeometry x="370" y="520" width="460" height="460" as="geometry"/>
                </mxCell>
                <mxCell id="25" value="" style="rounded=0;whiteSpace=wrap;html=1;labelBorderColor=none;fontSize=14;" vertex="1" parent="1">
                    <mxGeometry x="455" y="605" width="290" height="290" as="geometry"/>
                </mxCell>
                <mxCell id="26" value="" style="rounded=0;whiteSpace=wrap;html=1;labelBorderColor=none;fontSize=14;" vertex="1" parent="1">
                    <mxGeometry x="470" y="650" width="260" height="230" as="geometry"/>
                </mxCell>
                <mxCell id="28" value="" style="rounded=0;whiteSpace=wrap;html=1;labelBorderColor=none;fontSize=14;" vertex="1" parent="1">
                    <mxGeometry x="480" y="700" width="240" height="170" as="geometry"/>
                </mxCell>
                <mxCell id="29" value="" style="rounded=0;whiteSpace=wrap;html=1;labelBorderColor=none;fontSize=14;" vertex="1" parent="1">
                    <mxGeometry x="495" y="740" width="210" height="120" as="geometry"/>
                </mxCell>
                <mxCell id="30" value="TEXT" style="rounded=0;whiteSpace=wrap;html=1;labelBorderColor=none;fontSize=14;" vertex="1" parent="1">
                    <mxGeometry x="522.5" y="780" width="155" height="60" as="geometry"/>
                </mxCell>
                <mxCell id="31" value="HTML" style="text;html=1;strokeColor=none;fillColor=none;align=center;verticalAlign=middle;whiteSpace=wrap;rounded=0;labelBorderColor=none;fontSize=14;" vertex="1" parent="1">
                    <mxGeometry x="495" y="740" width="60" height="30" as="geometry"/>
                </mxCell>
                <mxCell id="32" value="HTTP&lt;span style=&quot;color: rgba(0, 0, 0, 0); font-family: monospace; font-size: 0px; text-align: start;&quot;&gt;%3CmxGraphModel%3E%3Croot%3E%3CmxCell%20id%3D%220%22%2F%3E%3CmxCell%20id%3D%221%22%20parent%3D%220%22%2F%3E%3CmxCell%20id%3D%222%22%20value%3D%22HTML%22%20style%3D%22text%3Bhtml%3D1%3BstrokeColor%3Dnone%3BfillColor%3Dnone%3Balign%3Dcenter%3BverticalAlign%3Dmiddle%3BwhiteSpace%3Dwrap%3Brounded%3D0%3BlabelBorderColor%3Dnone%3BfontSize%3D14%3B%22%20vertex%3D%221%22%20parent%3D%221%22%3E%3CmxGeometry%20x%3D%22500%22%20y%3D%22745%22%20width%3D%2260%22%20height%3D%2230%22%20as%3D%22geometry%22%2F%3E%3C%2FmxCell%3E%3C%2Froot%3E%3C%2FmxGraphModel%3E&lt;/span&gt;" style="text;html=1;strokeColor=none;fillColor=none;align=center;verticalAlign=middle;whiteSpace=wrap;rounded=0;labelBorderColor=none;fontSize=14;" vertex="1" parent="1">
                    <mxGeometry x="480" y="700" width="60" height="30" as="geometry"/>
                </mxCell>
                <mxCell id="33" value="TLS" style="text;html=1;strokeColor=none;fillColor=none;align=center;verticalAlign=middle;whiteSpace=wrap;rounded=0;labelBorderColor=none;fontSize=14;" vertex="1" parent="1">
                    <mxGeometry x="470" y="650" width="60" height="30" as="geometry"/>
                </mxCell>
                <mxCell id="34" value="TCP" style="text;html=1;strokeColor=none;fillColor=none;align=center;verticalAlign=middle;whiteSpace=wrap;rounded=0;labelBorderColor=none;fontSize=14;" vertex="1" parent="1">
                    <mxGeometry x="455" y="605" width="60" height="30" as="geometry"/>
                </mxCell>
            </root>
        </mxGraphModel>
    </diagram>
</mxfile>